<?xml version="1.0" standalone="no"?><!DOCTYPE svg PUBLIC "-//W3C//DTD SVG 1.1//EN" "http://www.w3.org/Graphics/SVG/1.1/DTD/svg11.dtd"><svg t="1737184271452" class="icon" viewBox="0 0 1024 1024" version="1.1" xmlns="http://www.w3.org/2000/svg" p-id="15860" xmlns:xlink="http://www.w3.org/1999/xlink" width="40" height="40"><path d="M239.616 502.08v-2.432H132.288l170.752-170.496L474.24 499.648H366.336v2.432a329.984 329.984 0 0 0 328.96 329.472c4.48 0 8.96-0.192 13.376-0.32l4.032-0.128a364.16 364.16 0 0 0 13.76-1.088l3.776-0.32a316.8 316.8 0 0 0 14.336-1.856l1.92-0.256a328.704 328.704 0 0 0-99.264-649.792 454.784 454.784 0 0 1 137.152 325.952v2.432h107.328l-170.816 170.496-171.072-170.496h107.84v-2.432a329.984 329.984 0 0 0-328.96-329.472c-4.48 0-8.96 0.192-13.376 0.384l-4.032 0.064c-4.608 0.256-9.216 0.64-13.76 1.088l-3.776 0.32a317.44 317.44 0 0 0-14.336 1.856l-1.92 0.256a328.704 328.704 0 0 0 99.264 649.792 454.784 454.784 0 0 1-137.152-325.952" fill="#13227a" p-id="15861"></path></svg>