<?xml version="1.0" standalone="no"?><!DOCTYPE svg PUBLIC "-//W3C//DTD SVG 1.1//EN" "http://www.w3.org/Graphics/SVG/1.1/DTD/svg11.dtd"><svg t="1737090423262" class="icon" viewBox="0 0 1024 1024" version="1.1" xmlns="http://www.w3.org/2000/svg" p-id="4334" width="40" height="40" xmlns:xlink="http://www.w3.org/1999/xlink"><path d="M632.3712 331.264a140.9024 140.9024 0 0 0-50.8928-191.6416A138.496 138.496 0 0 0 391.424 190.976l-287.2832 501.7088a140.9024 140.9024 0 0 0 50.8928 191.5904c66.56 38.7584 151.6544 15.7696 190.0544-51.3024l287.2832-501.76z" fill="#F8BB2D" p-id="4335"></path><path d="M363.5712 762.88c0 77.5168-62.3104 140.288-139.1616 140.288s-139.1616-62.7712-139.1616-140.288c0-77.4656 62.3104-140.288 139.1616-140.288s139.1616 62.8224 139.1616 140.288z" fill="#3BA757" p-id="4336"></path><path d="M391.8336 331.264a140.9024 140.9024 0 0 1 50.944-191.6416 138.496 138.496 0 0 1 190.0032 51.3536l287.3344 501.7088a140.9024 140.9024 0 0 1-50.944 191.5904 138.496 138.496 0 0 1-190.0544-51.3024l-287.2832-501.76z" fill="#4689F2" p-id="4337"></path></svg>